<svg width="814" height="472" viewBox="0 0 814 472" fill="none" xmlns="http://www.w3.org/2000/svg">
<path d="M208.625 285.306L141.125 469.806L240.625 401.806L239.252 396.806M208.625 285.306L239.252 396.806M208.625 285.306L205.125 282.306M137.125 466.806L156.299 408.806M197.125 285.306L158.613 401.806M197.125 285.306L205.125 282.306M197.125 285.306L138.125 309.97M239.252 396.806L324.625 387.933M446.125 375.306L432.625 376.709M446.125 375.306L473.125 447.806M446.125 375.306L444.251 358.306M432.625 376.709L398.125 408.806V380.295M432.625 376.709L398.125 380.295M398.125 380.295L324.625 387.933M158.613 401.806L156.299 408.806M158.613 401.806L129.125 378.672M75.125 336.306L123.625 374.357M75.125 336.306L138.125 309.97M75.125 336.306L70.4212 144.306M205.125 282.306L220.021 269.306M260.125 234.306L324.625 387.933M260.125 234.306L259.625 227.556L259.125 220.806M260.125 234.306L220.021 269.306M324.625 387.933L390.607 323.806M123.625 374.357L92.125 437.806L156.299 408.806M123.625 374.357L129.125 378.672M91.125 439.306L129.125 378.672M259.125 220.806L658.125 63.8062M259.125 220.806L346.144 110.306M259.125 220.806L234.625 237.903M658.125 63.8062L432.625 61.3281M658.125 63.8062L453.885 262.306M432.625 61.3281L457.625 0.806152M432.625 61.3281L406.125 61.0369M457.625 0.806152L406.125 61.0369M457.625 0.806152L317.625 45.8062M406.125 61.0369L385.125 60.8062L346.144 110.306M317.625 45.8062L346.144 110.306M317.625 45.8062L223.125 214.306L234.625 237.903M181.981 282.306L189.625 269.306L234.625 237.903M220.021 269.306L136.625 297.806M136.625 297.806L138.125 309.97M136.625 297.806L110.125 129.806L76.125 114.695M56.625 318.306L63.125 145.806M63.125 145.806L70.4212 144.306M63.125 145.806L18.125 158.306M70.4212 144.306L69.9925 126.806M18.125 158.306L5.125 140.806M18.125 158.306L69.9925 126.806M5.125 140.806L0.625 127.806L144.625 66.3062M5.125 140.806L64.125 109.297M144.625 66.3062L83.125 109.75M144.625 66.3062L64.125 109.297M76.125 114.695L69.625 111.806L69.9925 126.806M76.125 114.695L83.125 109.75M76.125 114.695L64.125 109.297M111.125 129.806L83.125 109.75M435.625 280.053L473.125 447.806M435.625 280.053L453.885 262.306M435.625 280.053L390.607 323.806M435.625 280.053L444.251 358.306M473.125 447.806L482.625 376.709L476.489 361.306M473.125 447.806L442.625 276.306L476.489 361.306M476.489 361.306L601.625 285.306M601.625 285.306L516.625 272.073M601.625 285.306L636.95 194.806M453.885 262.306L516.625 272.073M654.125 150.806L641.125 154.306L629.625 150.806L577.625 177.806L516.625 272.073M654.125 150.806L639.097 189.306M654.125 150.806L709.625 171.338M740.625 182.806L689.125 198.306M740.625 182.806L812.625 81.3062L709.625 171.338M740.625 182.806L709.625 171.338M689.125 198.306L639.097 189.306M689.125 198.306L636.95 194.806M639.097 189.306L636.95 194.806M390.607 323.806L444.251 358.306" stroke="black"/>
</svg>
