<svg width="249" height="206" viewBox="0 0 249 206" fill="none" xmlns="http://www.w3.org/2000/svg">
<path d="M123.407 155.701L160.407 119.201L155.474 109.201M123.407 155.701L88.9072 174.201M123.407 155.701L86.4072 119.201L91.3406 109.201M123.407 155.701L71.9072 117.201L71.0363 108.201M123.407 155.701L101.907 147.07M123.407 155.701L175.407 117.201L176.22 108.201M123.407 155.701L157.407 168.201V174.201M123.407 155.701L173.407 174.201L247.407 160.701M123.407 155.701L146.538 147.07M123.407 155.701L88.9072 168.094M123.407 155.701L157.407 174.201M123.407 44.2007V204.701M123.407 44.2007L105.401 80.7007M123.407 44.2007L141.414 80.7007M123.407 204.701L157.407 182.201V174.201M123.407 204.701L88.9072 181.201V174.201M88.9072 174.201V168.094M64.4072 39.7007L91.3406 109.201M64.4072 39.7007L68.1572 78.4507M64.4072 39.7007L68.1572 43.4513M105.401 80.7007L91.3406 109.201M105.401 80.7007L92.4072 67.7052M68.1572 78.4507L17.4072 64.2007M68.1572 78.4507L71.0363 108.201M17.4072 64.2007L71.0363 108.201M17.4072 64.2007L52.4072 127.201L76.9072 137.035M76.9072 137.035L45.9072 134.701L1.40723 160.201M76.9072 137.035L101.907 147.07M1.40723 160.201L71.9072 174.201L88.9072 168.094M1.40723 160.201L101.907 147.07M182.407 39.7007L155.474 109.201M182.407 39.7007L178.407 43.7013M182.407 39.7007L179.065 76.7007M141.414 80.7007L155.474 109.201M141.414 80.7007L153.661 68.452M178.407 43.7013V21.2007M178.407 43.7013L165.907 56.2034M178.407 21.2007L165.907 56.2034M178.407 21.2007L144.325 47.7007M165.907 56.2034L153.661 68.452M153.661 68.452L144.325 47.7007M92.4072 67.7052L101.732 47.7007M92.4072 67.7052L80.2822 55.5783M101.732 47.7007L123.407 1.20068L144.325 47.7007M101.732 47.7007L68.1572 21.2007M68.1572 21.2007V43.4513M68.1572 21.2007L80.2822 55.5783M68.1572 43.4513L80.2822 55.5783M231.407 64.7007L195.407 127.201L170.407 137.365M231.407 64.7007L179.065 76.7007M231.407 64.7007L176.22 108.201M179.065 76.7007L176.22 108.201M247.407 160.701L202.907 134.701L170.407 137.365M247.407 160.701L146.538 147.07M170.407 137.365L146.538 147.07" stroke="black"/>
</svg>
