<svg width="216" height="187" viewBox="0 0 216 187" fill="none" xmlns="http://www.w3.org/2000/svg">
<path d="M214.847 173.25L107.847 138.75M214.847 173.25L161.213 113.75M214.847 173.25L88.3467 174.25M107.847 138.75L88.3467 174.25M107.847 138.75L49.8467 186.25M107.847 138.75L101.847 102.25M107.847 138.75L132.847 117.529M88.3467 174.25L49.8467 186.25M49.8467 186.25L31.3467 80.7498M49.8467 186.25L43.3467 178.25M49.8467 186.25L85.7514 128.25M101.847 102.25L121.847 112.107M101.847 102.25L85.7514 128.25M101.847 102.25L124.347 107.114M101.847 102.25L93.8872 107.114M132.847 117.529L150.847 102.25L161.213 113.75M132.847 117.529L121.847 112.107M161.213 113.75L172.347 11.2498L134.293 87.2498M121.847 112.107L124.347 107.114M134.293 87.2498L68.8467 1.24976M134.293 87.2498L124.347 107.114M68.8467 1.24976L55.8467 90.2498M68.8467 1.24976L93.8872 107.114M55.8467 90.2498L44.8467 78.7498M55.8467 90.2498L85.7514 128.25M44.8467 78.7498L31.3467 80.7498M44.8467 78.7498L24.8467 71.7498M31.3467 80.7498L1.34668 105.25M31.3467 80.7498L24.8467 71.7498M31.3467 80.7498L28.8467 94.7498M1.34668 105.25L24.8467 71.7498M1.34668 105.25L28.8467 94.7498M43.3467 178.25L33.3467 165.75L40.0473 159.25M43.3467 178.25L40.0473 159.25M28.8467 94.7498L40.0473 159.25M76.8467 117.529L93.8872 107.114" stroke="black"/>
</svg>
