<svg width="622" height="579" viewBox="0 0 622 579" fill="none" xmlns="http://www.w3.org/2000/svg">
<path d="M449.891 291.712L415.391 310.212L307.891 319.212L201.891 310.212L174.891 291.712L184.141 275.462M449.891 291.712L440.391 306.712L415.391 316.212L307.891 327.712M449.891 291.712L441.891 278.712M390.891 251.212L429.891 259.212L433.891 265.712M390.891 251.212L379.891 273.712L379.413 273.832M390.891 251.212L383.533 265.712M390.891 251.212L393.206 247.212M184.141 275.462L79.3906 206.712M184.141 275.462L188.766 267.337M79.3906 206.712L18.3906 295.712M79.3906 206.712L75.3906 188.712M18.3906 295.712L139.391 375.212M18.3906 295.712L1.39062 298.212M139.391 375.212L132.891 386.212M139.391 375.212L161.766 340.212M184.141 305.212L174.891 292.712M184.141 305.212L201.891 316.212M184.141 305.212L161.766 340.212M201.891 316.212L307.891 327.712M201.891 316.212L247.891 465.712M307.891 327.712L247.891 465.712M307.891 327.712L375.391 465.712M307.891 327.712L310.891 477.212M439.391 305.712L461.159 340.462M493.891 392.712L489.192 385.212M493.891 392.712L509.397 388.212M493.891 392.712L504.324 375.692M489.192 385.212L482.928 375.212M489.192 385.212L504.129 375.212M619.891 297.712L548.391 188.712L455.891 250.918M619.891 297.712L603.391 295.212M619.891 297.712L504.129 375.212M433.891 265.712L441.891 278.712M433.891 265.712L455.891 250.918M441.891 278.712L543.391 206.712L603.391 295.212M603.391 295.212L482.928 375.212M482.928 375.212L461.159 340.462M515.891 369.712L540.891 402.212L545.391 427.212M545.391 427.212L567.391 453.712L558.391 478.212M545.391 427.212L530.391 409.212L527.891 411.212L545.391 465.712L558.391 478.212M558.391 478.212L441.896 485.712M530.391 425.212H524.391L509.397 388.212M504.129 375.212L504.324 375.692M509.397 388.212L504.324 375.692M461.159 340.462L427.448 422.712M420.891 438.712L392.891 455.212M420.891 438.712L427.448 422.712M420.891 438.712L375.391 465.712M427.448 422.712L441.896 485.712M441.896 485.712L448.891 516.212L375.391 571.712M375.391 571.712L310.891 577.212M375.391 571.712V465.712M310.891 577.212L247.891 571.712M310.891 577.212V477.212M247.891 571.712L170.891 516.212L177.674 486.712M247.891 571.712V465.712M192.391 422.712L177.674 486.712M192.391 422.712L247.891 465.712M192.391 422.712L161.766 340.212M188.766 267.337L193.391 259.212L231.677 251.212L240.986 267.337M188.766 267.337L167.891 252.861M75.3906 188.712L1.39062 298.212M75.3906 188.712L165.514 251.212M1.39062 298.212L106.891 368.813M132.891 386.212L126.891 391.712L116.453 375.212M132.891 386.212L116.453 375.212M116.453 375.212L112.317 387.212M116.453 375.212L106.891 368.813M126.891 392.212L112.317 387.212M112.317 387.212L99.3906 424.712H91.8906L95.8906 411.712M106.891 368.813L82.3906 402.212L76.3906 432.212M95.8906 411.712L79.3906 462.712L65.8906 477.212M95.8906 411.712L76.3906 432.212M65.8906 477.212L177.674 486.712M65.8906 477.212L56.8906 452.712L76.3906 432.212M245.391 275.462L228.391 246.371M228.391 246.371L209.891 214.712L206.891 204.212M228.391 246.371L167.891 252.861M167.891 252.861L165.514 251.212M165.514 251.212L185.891 203.712L200.391 187.712L200.785 188.712M206.891 204.212L200.785 188.712M206.891 204.212L261.391 223.212M200.785 188.712L153.391 56.7124L104.891 1.7124L183.891 20.7124L211.391 46.2124L222.391 41.2124L249.891 65.7124V74.7124L233.891 75.7124L222.391 114.712L233.641 151.212M264.391 206.712L261.391 223.212M264.391 206.712L272.391 194.712L285.391 183.712L299.391 178.212L307.891 176.712M264.391 206.712L250.535 193.212M261.391 223.212V229.212M261.391 229.212L240.986 267.337M261.391 229.212L262.891 243.212L269.891 256.712L276.891 265.712L287.891 271.712L296.391 274.966L307.891 276.712L317.391 274.966L328.891 271.712L338.891 265.712L349.391 256.712L356.891 243.212L359.891 229.212M240.986 267.337L245.391 274.966L307.891 291.712L379.413 273.832M379.413 273.832L383.533 265.712M413.391 205.712L412.891 213.212L399.864 235.712M413.391 205.712L359.891 221.712M413.391 205.712L421.391 189.212M359.891 221.712V228.212L383.533 265.712M359.891 221.712L356.891 208.212M421.391 189.212L434.891 202.712L455.891 250.918M421.391 189.212L469.891 55.2124L516.891 2.7124L434.891 21.2124L409.391 46.2124L399.864 41.2124L372.391 65.7124V75.7124H390.891L399.864 114.712L389.638 151.212M455.891 250.918L405.391 247.933M393.206 247.212L397.838 239.212M393.206 247.212L401.391 247.696M397.838 239.212L401.391 247.696M397.838 239.212L399.864 235.712M401.391 247.696L405.391 247.933M399.864 235.712L405.391 247.933M356.891 208.212L351.391 197.212L344.391 190.212L334.391 183.712L325.391 179.712L317.391 178.212L307.891 176.712M356.891 208.212L371.722 194.712M307.891 176.712V114.712M389.638 151.212L379.413 187.712L374.891 191.828M389.638 151.212L368.391 135.212L338.391 122.212M338.391 122.212L374.891 191.828M338.391 122.212H336.391M374.891 191.828L371.722 194.712M371.722 194.712L332.891 122.212M332.891 122.212H288.891M332.891 122.212H336.391M283.391 122.212L247.391 190.148M283.391 122.212L253.391 135.212L233.641 151.212M283.391 122.212H285.391M247.391 190.148L244.891 187.712L233.641 151.212M247.391 190.148L250.535 193.212M250.535 193.212L288.891 122.212M288.891 122.212H285.391M307.891 114.712H330.391L336.391 122.212M307.891 114.712H288.891L285.391 122.212M375.391 465.712L310.891 477.212M375.391 465.712L415.391 319.212M247.891 465.712L310.891 477.212" stroke="black" stroke-width="2"/>
</svg>
