<?xml version="1.0" standalone="no"?>
<!DOCTYPE svg PUBLIC "-//W3C//DTD SVG 20010904//EN"
 "http://www.w3.org/TR/2001/REC-SVG-20010904/DTD/svg10.dtd">
<svg version="1.0" xmlns="http://www.w3.org/2000/svg"
 width="1056.000000pt" height="992.000000pt" viewBox="0 0 1056.000000 992.000000"
 preserveAspectRatio="xMidYMid meet">
<metadata>
Created by potrace 1.16, written by Peter Selinger 2001-2019
</metadata>
<g transform="translate(0.000000,992.000000) scale(0.100000,-0.100000)"
fill="#000000" stroke="none">
<path d="M5154 7773 c-9 -21 -38 -87 -66 -146 -27 -60 -47 -111 -44 -114 3 -3
10 5 15 18 42 108 122 265 135 267 9 2 16 -1 16 -7 0 -6 20 -53 45 -105 25
-53 45 -98 45 -100 0 -3 21 -49 46 -103 26 -54 63 -136 84 -183 21 -47 63
-138 94 -203 31 -64 56 -119 56 -121 0 -3 23 -53 51 -113 28 -59 60 -128 71
-153 19 -43 51 -111 114 -247 16 -35 32 -63 36 -63 9 0 257 195 716 562 178
142 327 256 333 253 5 -4 9 -143 9 -343 l0 -337 46 53 c62 71 78 69 71 -5 -12
-117 -17 -250 -7 -208 5 22 9 63 9 91 1 28 5 74 11 103 18 95 -12 112 -76 44
l-44 -48 -2 330 c-3 291 -5 330 -19 333 -14 3 -99 -61 -255 -192 -33 -28 -111
-91 -174 -141 -62 -49 -162 -128 -221 -175 -267 -213 -380 -300 -388 -300 -9
0 -46 75 -131 260 -28 63 -70 151 -91 196 -21 44 -39 83 -39 86 0 4 -25 60
-56 125 -30 65 -66 141 -78 168 -26 54 -83 181 -165 365 -78 175 -84 185 -109
188 -18 3 -26 -4 -38 -35z"/>
<path d="M5165 7688 c-4 -13 -60 -140 -125 -283 -151 -335 -164 -363 -212
-465 -22 -47 -59 -128 -83 -180 -24 -52 -70 -153 -104 -224 -34 -70 -61 -130
-61 -132 0 -1 -18 -42 -41 -91 -22 -48 -63 -135 -89 -193 -26 -58 -70 -152
-97 -210 -27 -58 -55 -120 -63 -138 l-13 -34 169 -169 c93 -93 172 -169 176
-169 8 0 90 171 84 177 -5 5 -76 -140 -76 -155 0 -7 -3 -12 -6 -12 -4 0 -81
74 -172 165 l-165 165 76 163 c41 89 117 252 167 362 50 110 104 227 120 260
15 33 53 116 85 185 32 69 75 161 96 205 67 142 119 255 119 260 0 3 20 47 44
98 82 172 113 242 125 279 7 20 19 42 27 48 12 11 14 3 14 -53 0 -68 15 -95
45 -83 11 4 15 21 15 65 0 102 22 87 78 -54 28 -70 72 -151 72 -134 0 3 -15
39 -34 80 -18 41 -46 103 -62 139 -66 147 -93 180 -109 128z"/>
<path d="M5167 7413 c-11 -11 -8 -143 4 -165 8 -15 8 -26 0 -42 -18 -34 -10
-156 11 -170 36 -22 43 5 44 182 1 92 -3 175 -8 185 -9 17 -39 23 -51 10z"/>
<path d="M3475 7217 c-3 -7 -4 -154 -2 -327 l2 -315 3 323 c2 270 4 322 16
322 8 0 16 -3 18 -8 5 -12 946 -762 1000 -796 l27 -18 27 59 c47 104 54 123
49 123 -8 0 -65 -122 -65 -138 0 -30 -33 -22 -84 19 -30 24 -77 62 -106 84
-28 22 -124 98 -213 169 -89 72 -198 159 -242 194 -44 35 -98 78 -119 95 -290
235 -301 243 -311 214z"/>
<path d="M3545 7113 c3 -10 26 -74 50 -143 24 -69 66 -190 94 -270 29 -80 83
-236 120 -346 38 -111 74 -210 79 -220 6 -11 90 -97 186 -193 l175 -175 19 45
c11 24 45 97 76 162 31 65 56 120 56 122 0 3 13 31 28 63 35 72 43 92 36 92
-4 0 -49 -91 -99 -205 -31 -71 -116 -249 -120 -253 -2 -3 -81 71 -175 164
l-170 169 -29 90 c-16 50 -52 155 -81 235 -28 80 -66 190 -85 245 -57 172
-121 349 -133 372 -27 49 -6 39 116 -59 199 -159 214 -172 260 -207 23 -18 42
-29 42 -24 -1 4 -27 27 -58 51 -32 23 -69 53 -84 65 -40 34 -57 47 -133 107
-39 30 -76 60 -83 68 -25 23 -79 62 -87 62 -4 0 -4 -8 0 -17z"/>
<path d="M6793 7098 c-22 -18 -59 -49 -83 -68 -24 -19 -59 -49 -79 -65 -20
-17 -56 -47 -81 -65 -25 -19 -52 -40 -60 -47 -8 -7 -89 -71 -180 -143 -91 -72
-172 -136 -180 -143 -8 -7 -69 -55 -135 -106 -66 -51 -122 -98 -123 -103 -2
-5 4 -25 13 -46 60 -129 74 -161 88 -192 9 -19 36 -78 60 -131 25 -53 57 -124
72 -158 15 -33 31 -61 34 -61 3 0 88 82 188 183 l181 182 36 111 c48 151 49
155 26 106 -11 -24 -31 -83 -46 -130 l-26 -87 -175 -174 c-96 -95 -178 -169
-183 -165 -4 5 -36 70 -70 144 -34 74 -76 167 -94 205 -82 174 -96 209 -89
215 4 4 67 54 138 110 72 57 193 153 270 215 77 61 202 160 279 220 76 61 166
133 199 160 39 32 58 43 52 30 -17 -41 -135 -390 -134 -400 1 -13 18 34 94
253 35 100 60 182 55 182 -4 0 -26 -15 -47 -32z"/>
<path d="M6856 7039 c-8 -19 -44 -120 -79 -224 -36 -105 -72 -210 -81 -234 -9
-24 -14 -46 -12 -48 5 -5 33 63 67 167 16 47 47 137 69 200 l39 115 1 -258 0
-259 -136 -136 c-111 -112 -134 -131 -128 -107 4 17 12 41 19 55 21 43 67 190
63 201 -4 12 -95 -241 -105 -291 -4 -18 35 15 145 124 l149 148 5 287 c3 157
3 288 2 290 -2 2 -10 -11 -18 -30z"/>
<path d="M3519 7056 c-2 -2 -2 -131 1 -285 l5 -281 150 -150 c82 -82 150 -148
151 -147 1 1 -18 62 -43 135 -26 72 -48 130 -51 128 -5 -6 12 -60 44 -143 13
-34 24 -66 24 -71 0 -5 -58 49 -129 121 l-130 129 -6 72 c-3 39 -5 154 -3 256
l3 185 28 -85 c33 -101 68 -192 73 -187 3 3 -104 318 -110 324 -1 2 -5 1 -7
-1z"/>
<path d="M3453 6488 c7 -20 13 -27 15 -17 2 10 51 -33 146 -130 79 -80 321
-324 537 -542 217 -218 404 -408 417 -422 l23 -25 -54 -113 c-30 -63 -89 -186
-132 -274 -88 -182 -116 -245 -110 -245 3 0 21 35 41 78 20 42 75 156 121 252
47 96 98 203 115 237 16 34 28 67 26 72 -3 10 -1148 1161 -1154 1161 -2 0 2
-15 9 -32z"/>
<path d="M6367 5942 c-317 -317 -577 -582 -577 -588 0 -28 392 -826 401 -816
10 9 89 215 85 219 -4 5 -76 -169 -76 -184 0 -7 -4 -13 -8 -13 -7 0 -68 122
-321 643 l-72 148 28 32 c49 56 1087 1086 1091 1082 2 -2 -10 -35 -27 -73 -17
-39 -31 -74 -31 -78 0 -4 -18 -55 -40 -113 -109 -286 -135 -354 -173 -449 -22
-56 -38 -105 -35 -108 3 -2 10 8 16 23 6 15 33 87 60 158 28 72 84 220 125
330 41 110 89 235 106 279 18 43 30 80 29 82 -2 2 -263 -257 -581 -574z"/>
<path d="M3410 6470 c0 -7 4 -52 10 -99 5 -47 19 -180 30 -296 11 -115 24
-250 30 -300 5 -49 17 -164 25 -255 8 -91 19 -203 25 -250 5 -47 14 -137 20
-200 22 -259 61 -689 68 -751 l7 -66 130 -113 c172 -148 247 -214 317 -277 47
-41 380 -279 445 -318 10 -5 23 -16 31 -23 7 -6 22 -17 32 -22 11 -6 81 -54
157 -107 76 -53 152 -106 168 -117 17 -12 46 -33 65 -47 91 -68 61 -26 -80
113 -409 400 -836 817 -845 824 -5 5 4 -7 20 -26 17 -19 33 -37 36 -40 4 -3
187 -183 408 -400 221 -217 407 -398 414 -402 6 -4 9 -10 6 -13 -5 -5 -131 79
-415 275 -28 19 -94 64 -145 99 -174 119 -233 165 -424 331 -104 91 -218 190
-252 219 -60 51 -63 56 -63 98 0 58 -16 244 -40 463 -10 96 -24 236 -30 310
-6 74 -15 173 -20 220 -5 47 -14 135 -20 195 -6 61 -15 148 -20 195 -6 47 -17
165 -25 262 -8 98 -19 219 -25 270 -5 51 -12 116 -15 143 l-5 50 16 -35 c9
-19 29 -71 44 -115 47 -130 128 -336 136 -343 9 -9 15 -25 -101 283 -92 246
-115 298 -115 265z"/>
<path d="M6958 6438 c-10 -24 -62 -164 -118 -313 -55 -148 -104 -279 -109
-290 -4 -11 -18 -45 -29 -75 -12 -30 -48 -127 -82 -215 -33 -88 -72 -187 -85
-220 -13 -33 -51 -132 -84 -220 -33 -88 -83 -218 -111 -290 -28 -71 -60 -155
-71 -185 -10 -30 -23 -64 -28 -75 -33 -75 -35 -65 39 -219 39 -79 68 -150 65
-158 -3 -7 -120 -126 -261 -263 -540 -529 -738 -727 -724 -722 8 2 92 58 185
124 94 65 260 180 371 255 358 242 361 245 508 379 28 25 88 78 134 117 135
116 212 186 212 195 0 4 -10 -2 -22 -14 -13 -11 -126 -112 -253 -223 -234
-206 -277 -239 -524 -406 -78 -52 -225 -153 -327 -223 -102 -71 -188 -127
-190 -124 -2 2 96 102 218 223 705 694 691 680 683 705 -4 13 -34 80 -67 149
l-60 125 26 75 c14 41 42 116 61 165 64 162 113 288 155 400 60 161 104 276
151 395 23 58 49 128 59 155 39 111 111 302 124 330 18 38 55 136 109 288 23
65 43 113 45 107 2 -6 -1 -55 -7 -111 -6 -55 -10 -119 -10 -142 1 -23 10 35
20 128 23 200 22 235 -3 173z"/>
<path d="M3470 6446 c0 -2 7 -21 16 -42 9 -22 27 -66 39 -99 12 -33 55 -145
94 -250 40 -104 90 -235 111 -290 106 -278 203 -532 211 -550 4 -11 40 -105
79 -210 39 -104 75 -199 80 -210 7 -17 45 -118 82 -218 6 -15 14 -30 19 -33
10 -6 92 156 84 164 -3 3 -21 -30 -41 -72 -19 -43 -37 -76 -38 -74 -5 4 -70
170 -94 238 -31 85 -96 258 -125 330 -14 36 -44 112 -66 170 -22 58 -55 141
-72 185 -17 44 -46 121 -64 170 -19 50 -52 137 -73 195 -22 58 -54 143 -72
189 -17 46 -39 103 -49 125 -10 23 -31 77 -46 121 -35 103 -75 189 -75 161z"/>
<path d="M5781 6437 c-1 -8 67 -158 245 -541 l74 -159 -165 -164 -164 -164
-76 157 c-42 86 -78 154 -81 152 -6 -7 144 -318 154 -318 4 0 83 76 175 168
l169 169 -45 94 c-40 84 -97 209 -175 383 -46 102 -110 231 -111 223z"/>
<path d="M5210 4774 c0 -1006 4 -1654 9 -1652 22 8 1091 1059 1091 1073 0 5
-10 24 -21 40 -12 17 -18 21 -14 10 19 -52 16 -59 -52 -130 -69 -70 -570 -564
-849 -835 l-149 -145 -3 813 c-1 446 -1 1178 0 1625 l3 812 64 -128 c35 -70
68 -130 73 -133 5 -3 -2 16 -15 42 -13 27 -48 97 -77 157 -28 59 -54 107 -56
107 -2 0 -4 -745 -4 -1656z"/>
<path d="M5153 6403 c-17 -29 -34 -73 -28 -73 2 0 11 12 19 28 14 24 15 -152
16 -1597 0 -893 -2 -1622 -4 -1620 -3 2 -96 94 -208 204 -112 110 -350 345
-531 522 l-327 322 179 363 c242 493 273 559 267 565 -3 3 -23 -32 -44 -78
-22 -46 -99 -205 -172 -354 -72 -148 -157 -321 -188 -384 l-55 -114 304 -300
c167 -166 411 -406 542 -535 130 -129 239 -233 242 -230 3 3 4 747 3 1654 -3
1325 -5 1645 -15 1627z"/>
<path d="M5091 6279 c-10 -24 -66 -141 -123 -259 -58 -118 -130 -267 -161
-330 -30 -63 -103 -214 -161 -334 -59 -120 -104 -221 -101 -224 4 -4 95 180
255 513 67 141 213 442 275 568 27 53 45 100 42 103 -4 4 -15 -13 -26 -37z"/>
<path d="M8395 5820 c-14 -6 -15 -9 -5 -10 18 -1 17 -2 -186 -164 -82 -66
-228 -183 -324 -260 -96 -77 -224 -180 -285 -229 -60 -48 -117 -93 -125 -100
-8 -7 -127 -102 -265 -211 -137 -110 -272 -217 -298 -239 -27 -21 -51 -37 -54
-34 -3 4 9 133 26 289 17 156 35 350 40 432 6 82 12 150 13 151 2 1 80 21 173
44 302 74 409 101 445 111 19 5 82 21 139 35 97 23 134 36 100 34 -8 0 -205
-49 -439 -107 l-425 -107 -6 -45 c-4 -25 -12 -103 -18 -175 -7 -71 -18 -193
-26 -270 -28 -285 -37 -406 -32 -412 4 -3 263 201 578 453 314 253 606 486
648 519 320 250 387 307 354 304 -5 0 -17 -4 -28 -9z"/>
<path d="M2037 5803 c96 -81 648 -535 933 -767 63 -52 218 -178 343 -280 125
-102 232 -186 237 -186 6 0 10 10 10 23 0 17 -2 19 -9 8 -7 -11 -37 8 -138 89
-70 57 -153 124 -183 148 -30 24 -64 52 -75 61 -48 39 -237 193 -315 256 -47
37 -99 80 -116 94 -17 14 -50 42 -75 62 -24 20 -62 52 -85 70 -22 19 -60 50
-84 69 -24 19 -62 51 -85 70 -23 19 -61 51 -85 70 -87 70 -240 203 -237 206 2
2 130 -28 286 -67 156 -38 285 -68 287 -66 5 4 -553 147 -601 154 l-30 4 22
-18z"/>
<path d="M2010 5772 c0 -6 26 -54 58 -109 32 -54 72 -123 89 -153 16 -30 55
-98 85 -150 61 -105 96 -168 141 -250 16 -30 33 -59 37 -65 5 -5 30 -50 57
-100 56 -102 150 -266 228 -400 30 -49 70 -121 91 -160 20 -38 48 -86 61 -105
12 -19 23 -38 23 -41 0 -4 17 -36 38 -70 22 -35 56 -97 77 -137 21 -40 46 -78
54 -86 18 -14 272 -118 278 -113 1 2 -54 27 -124 56 -140 58 -160 74 -208 168
-16 32 -37 69 -46 83 -9 14 -39 66 -66 115 -85 153 -94 168 -129 226 -19 31
-34 59 -34 63 0 3 -16 30 -35 60 -19 30 -35 58 -35 62 0 4 -20 40 -45 80 -25
39 -45 75 -45 78 0 4 -12 25 -27 49 -15 23 -39 65 -54 92 -38 72 -110 200
-154 275 -37 63 -80 140 -160 285 -21 39 -51 89 -67 112 -15 23 -33 54 -38 69
-10 26 -10 27 7 13 51 -44 528 -437 602 -497 19 -15 54 -43 77 -62 23 -19 81
-66 129 -105 242 -196 379 -308 504 -412 47 -39 87 -70 90 -68 2 3 -8 14 -23
26 -14 11 -32 26 -39 33 -11 11 -82 68 -407 331 -74 60 -137 112 -140 115 -3
3 -63 53 -135 110 -71 57 -159 129 -195 159 -36 29 -85 71 -110 91 -25 20
-114 95 -199 166 -207 174 -211 177 -211 166z"/>
<path d="M8404 5747 c-35 -28 -391 -313 -495 -397 -20 -16 -200 -160 -400
-320 -200 -160 -372 -298 -382 -306 -10 -8 -81 -65 -158 -125 -76 -61 -139
-116 -139 -123 0 -7 -5 -62 -11 -122 -10 -108 -11 -109 -47 -142 -76 -69 -110
-100 -227 -202 -66 -58 -125 -110 -131 -115 -71 -66 -153 -130 -265 -207 -132
-90 -210 -148 -179 -132 18 9 246 164 299 202 40 29 412 355 499 437 l54 50
11 122 12 121 155 123 c85 68 220 175 300 239 80 64 195 156 255 204 61 48
137 109 170 136 33 27 177 142 320 256 143 114 286 229 318 256 31 28 57 46
57 42 0 -4 -18 -38 -40 -76 -22 -37 -59 -101 -82 -140 -22 -40 -58 -102 -78
-138 -21 -36 -77 -135 -125 -220 -48 -85 -108 -190 -133 -233 -24 -43 -43 -80
-41 -82 3 -2 68 107 145 243 78 136 196 343 264 460 67 117 120 215 118 217
-2 2 -22 -11 -44 -28z"/>
<path d="M8002 4913 c-38 -65 -86 -149 -107 -188 -21 -38 -48 -86 -60 -105
-12 -19 -33 -55 -47 -80 -14 -25 -61 -108 -106 -185 -44 -77 -95 -167 -114
-200 -148 -267 -114 -233 -298 -302 -52 -20 -99 -40 -105 -45 -12 -11 0 -7
145 49 63 24 122 52 132 61 9 9 30 43 47 75 17 31 42 74 55 95 21 33 110 189
206 362 20 36 90 157 155 270 147 254 178 310 171 310 -2 0 -36 -53 -74 -117z"/>
<path d="M2491 3545 c-179 -107 -326 -195 -327 -195 -2 0 -100 -58 -219 -130
-119 -71 -266 -158 -326 -192 -178 -101 -184 -105 -187 -121 -2 -8 2 -18 8
-22 18 -11 122 -34 150 -34 14 1 -4 7 -40 15 -107 23 -110 24 -110 38 0 8 8
17 17 20 21 8 346 199 745 437 31 19 117 70 190 113 73 44 199 119 279 167
l146 87 169 -19 c93 -10 183 -18 199 -17 17 0 -39 8 -122 18 -84 10 -174 20
-200 24 l-48 6 -324 -195z"/>
<path d="M7438 3719 c-92 -9 -176 -20 -185 -23 -25 -7 96 2 259 20 l136 15
279 -166 c153 -92 337 -202 408 -245 72 -42 186 -110 255 -151 139 -82 126
-74 314 -183 110 -64 135 -82 124 -91 -7 -7 -101 -29 -208 -49 -260 -49 -252
-47 -246 -53 5 -5 116 14 391 69 79 15 85 18 85 37 0 12 -44 43 -142 101 -79
45 -179 104 -223 130 -44 26 -87 50 -95 54 -8 3 -31 16 -50 27 -19 12 -107 64
-195 116 -88 53 -172 104 -187 114 -15 11 -29 19 -32 19 -3 0 -103 59 -223
130 -120 72 -226 135 -235 140 -21 12 -21 12 -230 -11z"/>
<path d="M2685 3606 c-77 -45 -173 -102 -214 -127 -41 -24 -86 -51 -100 -59
-14 -9 -100 -60 -191 -114 -91 -55 -190 -113 -220 -129 -30 -17 -66 -38 -80
-47 -14 -10 -41 -27 -60 -38 -272 -154 -284 -165 -160 -143 l55 10 -60 -5 -60
-4 30 18 c17 10 53 31 80 46 82 46 607 357 745 441 41 25 143 86 225 135 l150
89 82 -7 c46 -4 79 -5 75 -1 -4 3 -41 9 -82 12 l-76 6 -139 -83z"/>
<path d="M7525 3680 c-38 -6 -29 -7 34 -4 l84 3 234 -140 c128 -77 244 -146
256 -152 23 -13 262 -154 407 -240 47 -28 117 -71 157 -96 39 -26 86 -54 105
-65 47 -27 23 -31 -99 -16 -57 7 -106 11 -108 8 -6 -6 139 -26 245 -34 l65 -6
-45 30 c-25 16 -65 40 -90 54 -25 14 -142 83 -260 153 -118 71 -255 152 -305
181 -49 29 -108 64 -130 77 -22 13 -92 55 -155 92 -116 69 -149 89 -227 138
-44 28 -70 31 -168 17z"/>
<path d="M4030 3541 c8 -5 80 -34 160 -66 80 -31 154 -61 165 -66 37 -16 384
-149 389 -149 3 0 58 -23 123 -50 64 -28 123 -49 130 -48 6 2 -43 40 -110 86
-133 91 -318 219 -348 241 -11 7 -19 11 -19 8 0 -8 178 -135 317 -227 61 -41
110 -76 109 -77 -2 -2 -41 12 -87 31 -115 48 -454 180 -509 199 -47 17 -161
61 -195 77 -64 30 -163 62 -125 41z"/>
<path d="M5119 3015 c-20 -13 -130 -78 -245 -145 -115 -67 -249 -146 -299
-175 -49 -29 -155 -90 -235 -135 -80 -45 -151 -90 -157 -98 -8 -10 -13 -49
-13 -104 l0 -88 83 -60 c141 -102 891 -635 905 -644 9 -6 12 144 12 733 0 408
-3 741 -7 740 -5 0 -24 -11 -44 -24z m41 -716 c0 -709 0 -721 -19 -708 -11 8
-60 43 -110 79 -49 36 -144 103 -211 150 -67 47 -234 166 -373 265 l-252 181
0 99 0 98 35 20 c113 63 624 361 810 473 58 34 108 63 113 63 4 1 7 -324 7
-720z"/>
<path d="M5210 2300 l0 -741 21 11 c43 23 629 439 629 447 0 6 -47 -23 -75
-47 -11 -9 -110 -79 -220 -155 -110 -76 -222 -155 -250 -175 -27 -20 -60 -42
-72 -48 l-22 -12 -1 720 c0 440 3 720 9 720 5 0 55 -27 110 -60 56 -33 103
-60 105 -60 2 0 34 -18 70 -40 36 -22 68 -40 70 -40 3 0 57 -31 122 -70 64
-38 118 -70 120 -70 2 0 43 -24 91 -53 86 -52 174 -102 242 -139 19 -10 38
-23 43 -30 4 -7 8 -50 8 -96 0 -92 -3 -98 -92 -158 -82 -54 -248 -176 -248
-181 0 -5 142 92 272 186 l77 56 1 101 0 100 -62 36 c-68 38 -231 132 -483
278 -210 121 -219 126 -262 151 -21 12 -72 41 -114 65 -42 24 -79 44 -82 44
-4 0 -7 -333 -7 -740z"/>
<path d="M4745 2894 c-115 -46 -271 -107 -345 -135 -74 -28 -156 -60 -182 -71
l-48 -20 0 -73 c0 -39 3 -75 7 -78 7 -7 43 12 258 139 77 45 158 92 180 104
110 61 265 154 261 157 -2 2 -19 -5 -37 -16 -19 -12 -41 -24 -49 -28 -8 -3
-33 -18 -55 -32 -22 -14 -60 -36 -85 -49 -41 -23 -159 -90 -368 -213 -46 -27
-85 -49 -88 -49 -2 0 -4 31 -4 69 l0 68 193 73 c105 39 228 87 272 105 192 79
215 86 224 80 11 -6 91 35 91 48 0 11 -2 10 -225 -79z"/>
<path d="M3995 2603 c-272 -110 -348 -135 -395 -129 -31 4 -40 3 -30 -4 33
-21 92 -7 304 74 122 46 229 87 239 91 16 7 17 -6 17 -186 0 -107 4 -199 8
-205 9 -13 96 -77 297 -219 86 -60 227 -161 313 -224 86 -62 173 -124 192
-137 19 -13 52 -36 73 -51 21 -15 69 -50 107 -77 l70 -48 42 25 c24 14 68 44
98 66 73 54 89 65 345 245 250 175 249 175 367 259 48 34 117 82 152 107 36
25 67 54 70 65 3 11 6 102 6 202 0 169 1 182 18 177 16 -5 16 -5 -1 6 -9 6
-21 9 -26 5 -6 -3 -7 -72 -5 -163 7 -220 5 -231 -59 -276 -29 -20 -126 -90
-217 -154 -91 -65 -201 -142 -245 -173 -44 -30 -157 -109 -250 -175 -245 -172
-279 -194 -293 -194 -13 0 -112 63 -163 104 -14 12 -36 28 -49 36 -12 8 -41
29 -64 46 -58 44 -270 194 -314 224 -58 39 -267 187 -369 262 l-93 68 0 200
c0 184 -1 200 -17 199 -10 -1 -67 -21 -128 -46z"/>
</g>
</svg>
